<svg xmlns="http://www.w3.org/2000/svg" viewBox="0 0 512 512"><rect width="512" height="512" rx="50" ry="50" fill="#b3ddf7"/><path d="M-52.920 133.560L-52.920 133.560Q-84 135.240-102.480 122.220Q-120.960 109.200-120.960 90.720L-120.960 90.720Q-120.960 78.960-112.140 65.940Q-103.320 52.920-84.840 42L-84.840 42Q-49.560 21-5.040 12.180Q39.480 3.360 84.840-10.920L84.840-10.920L100.800-44.520Q110.880-66.360 120.960-101.220Q131.040-136.080 138.600-173.040Q146.160-210 148.680-235.200L148.680-235.200Q124.320-210.840 102.060-186.900Q79.800-162.960 55.440-135.240Q31.080-107.520 0-71.400L0-71.400Q-5.040-65.520-7.560-65.520L-7.560-65.520Q-10.080-65.520-10.080-69.720L-10.080-69.720Q-10.080-79.800 0-92.400L0-92.400L60.480-164.640Q74.760-181.440 91.560-199.080Q108.360-216.720 126-235.200L126-235.200L147-257.040Q149.520-271.320 154.560-287.280Q159.600-303.240 169.260-314.160Q178.920-325.080 194.880-325.080L194.880-325.080Q211.680-325.080 217.560-315.840Q223.440-306.600 220.920-297.360L220.920-297.360Q214.200-294.840 197.400-280.140Q180.600-265.440 164.640-251.160L164.640-251.160Q165.480-243.600 165.480-234.780Q165.480-225.960 165.480-215.880L165.480-215.880Q165.480-195.720 164.220-170.940Q162.960-146.160 158.760-115.920L158.760-115.920Q152.040-71.400 140.280-33.600L140.280-33.600Q161.280-44.520 180.600-58.380Q199.920-72.240 219.240-92.400L219.240-92.400Q225.960-99.960 232.680-107.520Q239.400-115.080 246.120-123.480L246.120-123.480Q247.800-125.160 249.480-125.160L249.480-125.160Q252-125.160 254.100-120.960Q256.200-116.760 253.680-113.400L253.680-113.400Q238.560-92.400 219.240-73.080L219.240-73.080Q201.600-55.440 179.760-40.740Q157.920-26.040 133.560-13.440L133.560-13.440Q109.200 48.720 63.840 88.620Q18.480 128.520-52.920 133.560ZM-71.400 114.240L-71.400 114.240Q-62.160 114.240-51.240 111.720L-51.240 111.720Q-21.840 105 10.080 81.900Q42 58.800 72.240 10.080L72.240 10.080Q35.280 21-0.840 29.400L-0.840 29.400Q-37.800 37.800-73.080 57.960L-73.080 57.960Q-100.800 73.920-100.800 94.080L-100.800 94.080Q-100.800 114.240-71.400 114.240Z" fill="#167aff" transform="translate(188.95270538330078, 351.6639862060547)"/></svg>